<svg width="16" height="17" viewBox="0 0 16 17" fill="none" xmlns="http://www.w3.org/2000/svg">
<path d="M6.10646 8.01868C6.08646 8.01868 6.07313 8.01868 6.05313 8.01868C6.01979 8.01201 5.97313 8.01201 5.93313 8.01868C3.99979 7.95868 2.53979 6.43868 2.53979 4.56535C2.53979 2.65868 4.09313 1.10535 5.99979 1.10535C7.90646 1.10535 9.45979 2.65868 9.45979 4.56535C9.45313 6.43868 7.98646 7.95868 6.12646 8.01868C6.11979 8.01868 6.11313 8.01868 6.10646 8.01868ZM5.99979 2.10535C4.64646 2.10535 3.53979 3.21201 3.53979 4.56535C3.53979 5.89868 4.57979 6.97201 5.90646 7.01868C5.94646 7.01201 6.03313 7.01201 6.11979 7.01868C7.42646 6.95868 8.45313 5.88535 8.45979 4.56535C8.45979 3.21201 7.35313 2.10535 5.99979 2.10535Z" fill="#202223"/>
<path d="M11.0263 8.10527C11.0063 8.10527 10.9863 8.10527 10.9663 8.0986C10.693 8.12527 10.413 7.93193 10.3863 7.6586C10.3597 7.38527 10.5263 7.1386 10.7997 7.10527C10.8797 7.0986 10.9663 7.0986 11.0397 7.0986C12.013 7.04527 12.773 6.24527 12.773 5.26527C12.773 4.25193 11.953 3.43193 10.9397 3.43193C10.6663 3.4386 10.4397 3.21193 10.4397 2.9386C10.4397 2.66527 10.6663 2.4386 10.9397 2.4386C12.4997 2.4386 13.773 3.71193 13.773 5.27193C13.773 6.80527 12.573 8.04527 11.0463 8.10527C11.0397 8.10527 11.033 8.10527 11.0263 8.10527Z" fill="#202223"/>
<path d="M6.11307 15.3053C4.80641 15.3053 3.49307 14.9719 2.49974 14.3053C1.57307 13.6919 1.06641 12.8519 1.06641 11.9386C1.06641 11.0253 1.57307 10.1786 2.49974 9.5586C4.49974 8.23193 7.73974 8.23193 9.72641 9.5586C10.6464 10.1719 11.1597 11.0119 11.1597 11.9253C11.1597 12.8386 10.6531 13.6853 9.72641 14.3053C8.72641 14.9719 7.41974 15.3053 6.11307 15.3053ZM3.05307 10.3986C2.41307 10.8253 2.06641 11.3719 2.06641 11.9453C2.06641 12.5119 2.41974 13.0586 3.05307 13.4786C4.71307 14.5919 7.51307 14.5919 9.17307 13.4786C9.81307 13.0519 10.1597 12.5053 10.1597 11.9319C10.1597 11.3653 9.80641 10.8186 9.17307 10.3986C7.51307 9.29193 4.71307 9.29193 3.05307 10.3986Z" fill="#202223"/>
<path d="M12.2263 14.1053C11.993 14.1053 11.7863 13.9453 11.7396 13.7053C11.6863 13.432 11.8596 13.172 12.1263 13.112C12.5463 13.0253 12.933 12.8587 13.233 12.6253C13.613 12.3387 13.8196 11.9787 13.8196 11.5987C13.8196 11.2187 13.613 10.8587 13.2396 10.5787C12.9463 10.352 12.5796 10.192 12.1463 10.092C11.8796 10.032 11.7063 9.76532 11.7663 9.49199C11.8263 9.22532 12.093 9.05199 12.3663 9.11199C12.9396 9.23865 13.4396 9.46532 13.8463 9.77865C14.4663 10.2453 14.8196 10.9053 14.8196 11.5987C14.8196 12.292 14.4596 12.952 13.8396 13.4253C13.4263 13.7453 12.9063 13.9787 12.333 14.092C12.293 14.1053 12.2596 14.1053 12.2263 14.1053Z" fill="#202223"/>
</svg>
