<svg width="16" height="17" viewBox="0 0 16 17" fill="none" xmlns="http://www.w3.org/2000/svg">
<path d="M13.6463 6.81443C13.2524 5.88923 12.6373 5.07487 11.8552 4.44285C11.073 3.81084 10.1477 3.38048 9.1604 3.18957L10.0523 1.7626L9.14773 1.19727L7.9709 3.0802C6.77216 3.08576 5.60131 3.4424 4.60302 4.10604C3.60473 4.76969 2.82274 5.71126 2.35367 6.81443C1.72535 6.82637 1.12681 7.08436 0.686683 7.53293C0.246561 7.98149 0 8.58484 0 9.21326C0 9.84169 0.246561 10.445 0.686683 10.8936C1.12681 11.3422 1.72535 11.6002 2.35367 11.6121C2.82474 12.7198 3.61122 13.6645 4.6152 14.3285C5.61917 14.9925 6.79629 15.3466 8 15.3466C9.20371 15.3466 10.3808 14.9925 11.3848 14.3285C12.3888 13.6645 13.1753 12.7198 13.6463 11.6121C14.2746 11.6002 14.8732 11.3422 15.3133 10.8936C15.7534 10.445 16 9.84169 16 9.21326C16 8.58484 15.7534 7.98149 15.3133 7.53293C14.8732 7.08436 14.2746 6.82637 13.6463 6.81443ZM14.5514 10.1469C14.3074 10.3964 13.975 10.5397 13.6261 10.5456L12.9352 10.5588L12.6648 11.1946C12.2757 12.1098 11.626 12.8903 10.7965 13.439C9.96705 13.9877 8.99452 14.2802 8.00002 14.2802C7.00552 14.2802 6.03299 13.9877 5.20353 13.439C4.37407 12.8903 3.72434 12.1098 3.33523 11.1946L3.06477 10.5588L2.37393 10.5456C2.02489 10.5391 1.69234 10.3959 1.44781 10.1467C1.20327 9.89754 1.06627 9.56237 1.06627 9.21326C1.06627 8.86416 1.20327 8.52899 1.44781 8.27983C1.69234 8.03068 2.02489 7.88743 2.37393 7.8809L3.06477 7.86776L3.33523 7.23196C3.72435 6.31676 4.37409 5.53623 5.20354 4.98758C6.033 4.43892 7.00552 4.14638 8.00002 4.14638C8.99451 4.14638 9.96703 4.43892 10.7965 4.98758C11.6259 5.53623 12.2757 6.31676 12.6648 7.23196L12.9352 7.86776L13.6261 7.8809C13.8864 7.88582 14.1396 7.96691 14.3544 8.11415C14.5691 8.26139 14.736 8.46833 14.8345 8.70939C14.9329 8.95046 14.9586 9.21508 14.9082 9.47056C14.8579 9.72604 14.7339 9.96118 14.5514 10.1469Z" fill="black"/>
<path d="M6.39998 7.87988H5.06665V9.21322H6.39998V7.87988Z" fill="black"/>
<path d="M10.9334 7.87988H9.6001V9.21322H10.9334V7.87988Z" fill="black"/>
<path d="M7.99992 12.9466C8.35011 12.9466 8.69687 12.8776 9.02041 12.7436C9.34394 12.6096 9.63791 12.4131 9.88554 12.1655C10.1332 11.9179 10.3296 11.6239 10.4636 11.3004C10.5976 10.9769 10.6666 10.6301 10.6666 10.2799H5.33325C5.33325 10.6301 5.40223 10.9769 5.53624 11.3004C5.67025 11.6239 5.86668 11.9179 6.1143 12.1655C6.6144 12.6656 7.29267 12.9466 7.99992 12.9466Z" fill="black"/>
</svg>
