<svg width="16" height="18" viewBox="0 0 16 18" fill="none" xmlns="http://www.w3.org/2000/svg">
<path fill-rule="evenodd" clip-rule="evenodd" d="M8.20546 17.6053C7.07629 17.6053 5.97546 17.5928 4.88629 17.5703C3.49296 17.5429 2.52879 16.6395 2.37129 15.2128C2.10879 12.8462 1.65962 7.26785 1.65546 7.21202C1.62712 6.86785 1.88379 6.56618 2.22796 6.53868C2.56712 6.52952 2.87379 6.76785 2.90129 7.11118C2.90546 7.16785 3.35379 12.727 3.61379 15.0753C3.70296 15.8862 4.14046 16.3045 4.91212 16.3203C6.99546 16.3645 9.12129 16.367 11.413 16.3253C12.233 16.3095 12.6763 15.8995 12.768 15.0695C13.0263 12.7412 13.4763 7.16785 13.4813 7.11118C13.5088 6.76785 13.813 6.52785 14.1538 6.53868C14.498 6.56702 14.7546 6.86785 14.7271 7.21202C14.7221 7.26868 14.2705 12.8612 14.0105 15.207C13.8488 16.6628 12.8871 17.5487 11.4355 17.5753C10.3246 17.5945 9.25296 17.6053 8.20546 17.6053Z" fill="#DC3545"/>
<path fill-rule="evenodd" clip-rule="evenodd" d="M15.2567 5.09644H1.125C0.78 5.09644 0.5 4.81644 0.5 4.47144C0.5 4.12644 0.78 3.84644 1.125 3.84644H15.2567C15.6017 3.84644 15.8817 4.12644 15.8817 4.47144C15.8817 4.81644 15.6017 5.09644 15.2567 5.09644Z" fill="#DC3545"/>
<path fill-rule="evenodd" clip-rule="evenodd" d="M12.5335 5.09647C11.5852 5.09647 10.7618 4.42063 10.5752 3.49063L10.3727 2.4773C10.3302 2.32313 10.1543 2.18896 9.95432 2.18896H6.42682C6.22682 2.18896 6.05099 2.32313 6.00016 2.51563L5.80599 3.49063C5.62016 4.42063 4.79599 5.09647 3.84766 5.09647C3.50266 5.09647 3.22266 4.81647 3.22266 4.47147C3.22266 4.12647 3.50266 3.84647 3.84766 3.84647C4.20266 3.84647 4.51099 3.59313 4.58099 3.2448L4.78349 2.23146C4.98932 1.4548 5.66182 0.938965 6.42682 0.938965H9.95432C10.7193 0.938965 11.3918 1.4548 11.5893 2.19397L11.801 3.2448C11.8702 3.59313 12.1785 3.84647 12.5335 3.84647C12.8785 3.84647 13.1585 4.12647 13.1585 4.47147C13.1585 4.81647 12.8785 5.09647 12.5335 5.09647Z" fill="#DC3545"/>
</svg>
