<svg width="22" height="23" viewBox="0 0 22 23" fill="none" xmlns="http://www.w3.org/2000/svg">
<rect y="0.271973" width="22" height="22" rx="4" fill="#CAA37D"/>
<path fill-rule="evenodd" clip-rule="evenodd" d="M11.0002 6.60522C11.3223 6.60522 11.5835 6.86639 11.5835 7.18856V10.6886H15.0835C15.4057 10.6886 15.6668 10.9497 15.6668 11.2719C15.6668 11.5941 15.4057 11.8552 15.0835 11.8552H11.5835V15.3552C11.5835 15.6774 11.3223 15.9386 11.0002 15.9386C10.678 15.9386 10.4168 15.6774 10.4168 15.3552V11.8552H6.91683C6.59466 11.8552 6.3335 11.5941 6.3335 11.2719C6.3335 10.9497 6.59466 10.6886 6.91683 10.6886H10.4168V7.18856C10.4168 6.86639 10.678 6.60522 11.0002 6.60522Z" fill="#FDFDFD"/>
</svg>
