<svg width="85" height="56" viewBox="0 0 85 56" fill="none" xmlns="http://www.w3.org/2000/svg">
<g clip-path="url(#clip0_225_18050)">
<path d="M26.9768 18.5134C25.4544 15.5386 23.6953 14.2707 20.5887 13.4477C20.119 13.3167 19.6595 13.2374 19.2309 13.1734C16.2409 12.7467 14.4613 13.7281 14.4613 13.7281L14.1321 14.0878C14.1321 14.0878 19.3475 14.3652 21.3088 19.9551C22.19 22.4605 22.9581 25.231 23.5102 27.517H23.5068C24.3914 30.9794 25.2795 34.5333 26.7574 37.438L26.7848 37.4898C28.3038 40.4615 30.0628 41.7325 33.1729 42.5555C33.6426 42.6865 34.1021 42.7658 34.5307 42.8298C37.5173 43.2595 39.2969 42.2781 39.2969 42.2781L39.6261 41.9184C39.6261 41.9184 34.4107 41.6411 32.4494 36.0512C31.5681 33.5458 30.8001 30.7752 30.248 28.4893H30.2514C29.3668 25.0268 28.4787 21.4729 27.0008 18.5682L26.9768 18.5134Z" fill="#FDFDFD"/>
<path d="M58.6018 18.5133C57.0828 15.5416 55.3238 14.2706 52.2137 13.4476C51.744 13.3166 51.2845 13.2373 50.8559 13.1733C47.8693 12.7436 46.0897 13.725 46.0897 13.725L45.7605 14.0846C45.7605 14.0846 50.9759 14.362 52.9372 19.9519C53.8185 22.4573 54.5865 25.2279 55.1386 27.5138H55.1352C56.0198 30.9763 56.9079 34.5302 58.3858 37.4348L58.4132 37.4867C59.9322 40.4584 61.6913 41.7294 64.8013 42.5523C65.2711 42.6834 65.7305 42.7626 66.1592 42.8266C69.1457 43.2564 70.9254 42.2749 70.9254 42.2749L71.2545 41.9153C71.2545 41.9153 66.0391 41.6379 64.0778 36.048C63.1966 33.5426 62.4285 30.7721 61.8764 28.4861H61.8799C60.9952 25.0237 60.1071 21.4698 58.6292 18.5651L58.6018 18.5133Z" fill="#FDFDFD"/>
<path d="M42.7876 18.5133C41.2686 15.5385 39.5095 14.2706 36.4029 13.4476C35.9332 13.3166 35.4737 13.2373 35.0451 13.1733C32.0585 12.7436 30.2789 13.725 30.2789 13.725L29.9497 14.0846C29.9497 14.0846 35.1651 14.362 37.1264 19.9519C38.0077 22.4573 38.7758 25.2279 39.3278 27.5138H39.3244C40.209 30.9763 41.0971 34.5302 42.575 37.4348L42.6024 37.4867C44.1214 40.4584 45.8805 41.7294 48.9905 42.5523C49.4603 42.6834 49.9197 42.7626 50.3484 42.8266C53.335 43.2564 55.1146 42.2749 55.1146 42.2749L55.4437 41.9153C55.4437 41.9153 50.2283 41.6379 48.267 36.048C47.3858 33.5426 46.6177 30.7721 46.0656 28.4861H46.0691C45.1844 25.0237 44.2963 21.4698 42.8184 18.5651L42.7876 18.5133Z" fill="#FDFDFD"/>
</g>
<defs>
<clipPath id="clip0_225_18050">
<rect width="57.1224" height="29.8667" fill="white" transform="translate(14.1321 13.0667)"/>
</clipPath>
</defs>
</svg>
