<svg width="12" height="12" viewBox="0 0 12 12" fill="none" xmlns="http://www.w3.org/2000/svg">
<path fill-rule="evenodd" clip-rule="evenodd" d="M6.00008 0.938599C6.36827 0.938599 6.66675 1.23708 6.66675 1.60527V5.60527H10.6667C11.0349 5.60527 11.3334 5.90374 11.3334 6.27193C11.3334 6.64012 11.0349 6.9386 10.6667 6.9386H6.66675V10.9386C6.66675 11.3068 6.36827 11.6053 6.00008 11.6053C5.63189 11.6053 5.33341 11.3068 5.33341 10.9386V6.9386H1.33341C0.965225 6.9386 0.666748 6.64012 0.666748 6.27193C0.666748 5.90374 0.965225 5.60527 1.33341 5.60527H5.33341V1.60527C5.33341 1.23708 5.63189 0.938599 6.00008 0.938599Z" fill="#CAA37D"/>
</svg>
