<svg width="24" height="25" viewBox="0 0 24 25" fill="none" xmlns="http://www.w3.org/2000/svg">
<path d="M21 8.02197H3C2.59 8.02197 2.25 7.68197 2.25 7.27197C2.25 6.86197 2.59 6.52197 3 6.52197H21C21.41 6.52197 21.75 6.86197 21.75 7.27197C21.75 7.68197 21.41 8.02197 21 8.02197Z" fill="#474A4C"/>
<path d="M21 13.022H3C2.59 13.022 2.25 12.682 2.25 12.272C2.25 11.862 2.59 11.522 3 11.522H21C21.41 11.522 21.75 11.862 21.75 12.272C21.75 12.682 21.41 13.022 21 13.022Z" fill="#474A4C"/>
<path d="M21 18.022H3C2.59 18.022 2.25 17.682 2.25 17.272C2.25 16.862 2.59 16.522 3 16.522H21C21.41 16.522 21.75 16.862 21.75 17.272C21.75 17.682 21.41 18.022 21 18.022Z" fill="#474A4C"/>
</svg>
