<svg width="14" height="15" viewBox="0 0 14 15" fill="none" xmlns="http://www.w3.org/2000/svg">
<path fill-rule="evenodd" clip-rule="evenodd" d="M9.67 13.3203H4.52266C2.51541 13.3203 1.16675 11.9115 1.16675 9.81504V4.96521C1.16675 2.86871 2.51541 1.45996 4.52266 1.45996H6.70375C6.94525 1.45996 7.14125 1.65596 7.14125 1.89746C7.14125 2.13896 6.94525 2.33496 6.70375 2.33496H4.52266C3.01533 2.33496 2.04175 3.36746 2.04175 4.96521V9.81504C2.04175 11.4128 3.01533 12.4453 4.52266 12.4453H9.67C11.1773 12.4453 12.1515 11.4128 12.1515 9.81504V7.46538C12.1515 7.22388 12.3475 7.02788 12.589 7.02788C12.8305 7.02788 13.0265 7.22388 13.0265 7.46538V9.81504C13.0265 11.9115 11.6772 13.3203 9.67 13.3203Z" fill="#CAA37D"/>
<path fill-rule="evenodd" clip-rule="evenodd" d="M5.17284 9.27172H6.90942C7.13109 9.27172 7.33875 9.18597 7.49567 9.02905L11.8759 4.6488C12.0556 4.46914 12.1548 4.22997 12.1548 3.97564C12.1548 3.72072 12.0556 3.48097 11.8759 3.3013L11.166 2.59139C10.7944 2.22097 10.1901 2.22097 9.81792 2.59139L5.45867 6.95064C5.30759 7.10172 5.22184 7.30239 5.21659 7.5153L5.17284 9.27172ZM6.90942 10.1467H4.72425C4.60642 10.1467 4.49325 10.0989 4.411 10.0143C4.32875 9.9303 4.28384 9.81655 4.28675 9.69814L4.34159 7.49372C4.35267 7.05505 4.52942 6.64264 4.83975 6.33172H4.84034L9.19959 1.97247C9.91242 1.2608 11.0715 1.2608 11.7843 1.97247L12.4943 2.68239C12.8402 3.02772 13.0303 3.4868 13.0298 3.97564C13.0298 4.46447 12.8396 4.92297 12.4943 5.26772L8.11401 9.64797C7.79259 9.96939 7.36442 10.1467 6.90942 10.1467Z" fill="#CAA37D"/>
<path fill-rule="evenodd" clip-rule="evenodd" d="M11.5098 6.05652C11.3978 6.05652 11.2858 6.01393 11.2006 5.92818L8.53712 3.26468C8.36621 3.09377 8.36621 2.81668 8.53712 2.64577C8.70804 2.47485 8.98454 2.47485 9.15546 2.64577L11.819 5.30985C11.9899 5.48077 11.9899 5.75727 11.819 5.92818C11.7338 6.01393 11.6218 6.05652 11.5098 6.05652Z" fill="#CAA37D"/>
</svg>
