<svg width="12" height="11" viewBox="0 0 12 11" fill="none" xmlns="http://www.w3.org/2000/svg">
<path d="M11.6815 5.80272C11.5298 5.30106 11.279 4.86356 10.9465 4.50772C10.5207 4.02356 9.95484 3.69106 9.319 3.54522C8.99817 2.08689 8.09984 1.03689 6.82234 0.646058C5.434 0.214391 3.824 0.634391 2.81484 1.69022C1.92817 2.61772 1.6365 3.89522 1.98067 5.25439C0.814004 5.54022 0.236504 6.51439 0.172337 7.44189C0.166504 7.50606 0.166504 7.56439 0.166504 7.62272C0.166504 8.71939 0.884004 9.95022 2.48234 10.0669H8.53734C9.36567 10.0669 10.159 9.75772 10.7657 9.20356C11.7165 8.36939 12.0665 7.06856 11.6815 5.80272Z" fill="#FDFDFD"/>
</svg>
