<svg width="18" height="17" viewBox="0 0 18 17" fill="none" xmlns="http://www.w3.org/2000/svg">
<path d="M13.9322 10.2053C13.7164 10.4145 13.6172 10.717 13.6664 11.0137L14.4072 15.1137C14.4697 15.4612 14.3231 15.8128 14.0322 16.0137C13.7472 16.222 13.3681 16.247 13.0572 16.0803L9.3664 14.1553C9.23807 14.087 9.09557 14.0503 8.94973 14.0462H8.7239C8.64557 14.0578 8.5689 14.0828 8.4989 14.1212L4.80723 16.0553C4.62473 16.147 4.41807 16.1795 4.21557 16.147C3.72223 16.0537 3.39307 15.5837 3.4739 15.0878L4.21557 10.9878C4.26473 10.6887 4.16557 10.3845 3.94973 10.172L0.940567 7.25535C0.6889 7.01118 0.6014 6.64451 0.7164 6.31368C0.828067 5.98368 1.11307 5.74285 1.45723 5.68868L5.5989 5.08785C5.9139 5.05535 6.19057 4.86368 6.33223 4.58035L8.15723 0.83868C8.20057 0.755347 8.2564 0.67868 8.3239 0.61368L8.3989 0.555347C8.43807 0.512013 8.48307 0.47618 8.53307 0.447013L8.6239 0.41368L8.76557 0.355347H9.1164C9.42973 0.387847 9.70557 0.575347 9.84973 0.855347L11.6989 4.58035C11.8322 4.85285 12.0914 5.04201 12.3906 5.08785L16.5322 5.68868C16.8822 5.73868 17.1747 5.98035 17.2906 6.31368C17.3997 6.64785 17.3056 7.01451 17.0489 7.25535L13.9322 10.2053Z" fill="#FDB022"/>
</svg>
