<svg width="17" height="17" viewBox="0 0 17 17" fill="none" xmlns="http://www.w3.org/2000/svg">
<path fill-rule="evenodd" clip-rule="evenodd" d="M8.79143 2.02197C8.7156 2.02197 8.52893 2.04281 8.42977 2.24114L6.9081 5.28364C6.66727 5.76447 6.2031 6.09864 5.66643 6.17531L2.25977 6.66614C2.03477 6.69864 1.9581 6.86531 1.93477 6.93531C1.91393 7.00281 1.8806 7.17447 2.0356 7.32281L4.49893 9.68947C4.89143 10.067 5.06977 10.6111 4.97643 11.1436L4.39643 14.4853C4.3606 14.6945 4.49143 14.8161 4.54977 14.8578C4.61143 14.9045 4.77643 14.997 4.9806 14.8903L8.02643 13.3111C8.50643 13.0636 9.0781 13.0636 9.55643 13.3111L12.6014 14.8895C12.8064 14.9953 12.9714 14.9028 13.0339 14.8578C13.0923 14.8161 13.2231 14.6945 13.1873 14.4853L12.6056 11.1436C12.5123 10.6111 12.6906 10.067 13.0831 9.68947L15.5464 7.32281C15.7023 7.17447 15.6689 7.00197 15.6473 6.93531C15.6248 6.86531 15.5481 6.69864 15.3231 6.66614L11.9164 6.17531C11.3806 6.09864 10.9164 5.76447 10.6756 5.28281L9.15227 2.24114C9.05393 2.04281 8.86727 2.02197 8.79143 2.02197ZM4.78893 16.1886C4.44477 16.1886 4.1031 16.0803 3.8106 15.867C3.3056 15.497 3.0581 14.8861 3.1656 14.2711L3.7456 10.9295C3.76727 10.8053 3.72477 10.6795 3.6331 10.5911L1.16977 8.22447C0.716434 7.79031 0.553934 7.14864 0.745601 6.55281C0.938934 5.95031 1.4506 5.51947 2.08143 5.42947L5.4881 4.93864C5.61977 4.92031 5.7331 4.83947 5.78977 4.72447L7.31227 1.68114C7.5931 1.12031 8.15977 0.771973 8.79144 0.771973C9.4231 0.771973 9.98977 1.12031 10.2706 1.68114L11.7939 4.72364C11.8514 4.83947 11.9639 4.92031 12.0948 4.93864L15.5014 5.42947C16.1323 5.51947 16.6439 5.95031 16.8373 6.55281C17.0289 7.14864 16.8656 7.79031 16.4123 8.22447L13.9489 10.5911C13.8573 10.6795 13.8156 10.8053 13.8373 10.9286L14.4181 14.2711C14.5248 14.887 14.2773 15.4978 13.7714 15.867C13.2589 16.2428 12.5914 16.2936 12.0256 15.9986L8.98143 14.4211C8.86227 14.3595 8.71977 14.3595 8.6006 14.4211L5.55643 15.9995C5.3131 16.1261 5.0506 16.1886 4.78893 16.1886Z" fill="#6D7175"/>
</svg>
